<svg width="578" height="132" xmlns="http://www.w3.org/2000/svg" xmlns:xlink="http://www.w3.org/1999/xlink" xml:space="preserve" overflow="hidden"><g transform="translate(-757 -217)"><rect x="760.5" y="220.5" width="571" height="125" stroke="#946BEB" stroke-width="6.875" stroke-miterlimit="8" fill="none"/><rect x="760.5" y="220.5" width="565" height="125" stroke="#FFFFFF" stroke-width="6.875" stroke-miterlimit="8" fill="#FFFFFF"/><g><g><g><path d="M791.25 261.667 780.833 261.667M791.25 303.333 780.833 303.333M791.25 282.5 775.625 282.5M796.458 243.519C803.907 238.533 812.864 235.625 822.5 235.625 848.389 235.625 869.375 256.612 869.375 282.5 869.375 308.389 848.389 329.375 822.5 329.375 812.864 329.375 803.907 326.467 796.458 321.482M832.917 269.479C830.313 268.833 826.068 268.809 822.5 268.833M822.5 268.833C821.307 268.841 822.028 268.79 820.417 268.833 816.212 268.964 812.092 270.712 812.083 275.664 812.074 280.939 817.292 282.5 822.5 282.5 827.708 282.5 832.917 283.704 832.917 289.335 832.917 293.568 828.711 295.422 823.469 296.037 823.133 296.037 822.811 296.037 822.5 296.039M822.5 268.833 822.5 261.667M822.5 296.039C818.957 296.053 816.871 296.119 812.083 295.52M822.5 296.039 822.5 303.333" stroke="#946BEB" stroke-width="10.4167" stroke-linecap="round" stroke-linejoin="round" fill="none"/></g></g></g></g></svg>