<svg width="578" height="132" xmlns="http://www.w3.org/2000/svg" xmlns:xlink="http://www.w3.org/1999/xlink" xml:space="preserve" overflow="hidden"><g transform="translate(-757 -375)"><rect x="760.5" y="378.5" width="571" height="125" stroke="#FFFFFF" stroke-width="6.875" stroke-miterlimit="8" fill="none"/><rect x="760.5" y="378.5" width="565" height="125" stroke="#FFFFFF" stroke-width="6.875" stroke-miterlimit="8" fill="none"/><g><g><g><path d="M31.2499 41.6666 20.8333 41.6666M31.2499 83.3332 20.8333 83.3332M31.2499 62.4999 15.625 62.4999M36.4583 23.5184C43.9067 18.5326 52.864 15.625 62.4999 15.625 88.3884 15.625 109.375 36.6116 109.375 62.4999 109.375 88.3884 88.3884 109.375 62.4999 109.375 52.864 109.375 43.9067 106.467 36.4583 101.482M72.9165 49.4786C70.3124 48.8327 66.0681 48.8089 62.4999 48.8327M62.4999 48.8327C61.3067 48.8406 62.028 48.7899 60.4166 48.8327 56.2114 48.9639 52.0916 50.7117 52.0832 55.6634 52.0741 60.9384 57.2916 62.4994 62.4999 62.4994 67.7082 62.4994 72.9165 63.7035 72.9165 69.3353 72.9165 73.5676 68.7108 75.4223 63.4692 76.0363 63.1332 76.0363 62.8108 76.0368 62.4999 76.0384M62.4999 48.8327 62.4999 41.6666M62.4999 76.0384C58.9572 76.053 56.8713 76.1186 52.0832 75.5202M62.4999 76.0384 62.4999 83.3332" stroke="#000000" stroke-width="10.4166" stroke-linecap="round" stroke-linejoin="round" fill="none" transform="matrix(1 0 0 1 760 378)"/></g></g></g></g></svg>