<svg width="578" height="132" xmlns="http://www.w3.org/2000/svg" xmlns:xlink="http://www.w3.org/1999/xlink" xml:space="preserve" overflow="hidden"><g transform="translate(-1476 -56)"><rect x="1479.5" y="59.5" width="571" height="125" stroke="#2F55D0" stroke-width="6.875" stroke-miterlimit="8" fill="none"/><rect x="1479.5" y="59.5" width="565" height="125" stroke="#FFFFFF" stroke-width="6.875" stroke-miterlimit="8" fill="#FFFFFF"/><g><g><g><path d="M46.0001 0C34.8501 0 25.7794 9.07082 25.7794 20.2206 25.7794 31.3702 34.8503 40.4412 46.0001 40.4412 57.1499 40.4412 66.2207 31.3701 66.2207 20.2206 66.2207 9.07082 57.1501 0 46.0001 0Z" stroke="#2F55D0" stroke-width="0.179688" fill="#2F55D0" transform="matrix(1 0 0 1.01087 1502 79.0001)"/><path d="M50.8337 50.4234 50.8337 55.3029 50.8337 60.2047 50.8337 80.7215C50.8337 81.2873 50.7316 81.828 50.5526 82.3327 49.8885 84.2085 48.1037 85.5551 46.0001 85.5551 43.8965 85.5551 42.112 84.2085 41.4475 82.3327 41.2687 81.8282 41.1665 81.2873 41.1665 80.7215L41.1665 60.2047 41.1665 55.3029 41.1665 50.4234C23.0081 52.7994 8.94216 68.3705 8.94216 87.1665 8.94216 89.8356 11.1063 92.0001 13.7758 92.0001L78.2242 92.0001C80.8936 92.0001 83.0578 89.8356 83.0578 87.1665 83.058 68.3708 68.992 52.7996 50.8337 50.4234Z" stroke="#2F55D0" stroke-width="0.179688" fill="#2F55D0" transform="matrix(1 0 0 1.01087 1502 79.0001)"/></g></g></g></g></svg>