<svg width="578" height="132" xmlns="http://www.w3.org/2000/svg" xmlns:xlink="http://www.w3.org/1999/xlink" xml:space="preserve" overflow="hidden"><g transform="translate(-1476 -375)"><rect x="1479.5" y="378.5" width="571" height="125" stroke="#FFFFFF" stroke-width="6.875" stroke-miterlimit="8" fill="none"/><rect x="1479.5" y="378.5" width="565" height="125" stroke="#FFFFFF" stroke-width="6.875" stroke-miterlimit="8" fill="none"/><g><g><g><path d="M1548 396C1536.85 396 1527.78 405.071 1527.78 416.221 1527.78 427.37 1536.85 436.441 1548 436.441 1559.15 436.441 1568.22 427.37 1568.22 416.221 1568.22 405.071 1559.15 396 1548 396Z" stroke="#000000" stroke-width="0.179688"/><path d="M1552.83 446.423 1552.83 451.303 1552.83 456.205 1552.83 476.721C1552.83 477.287 1552.73 477.828 1552.55 478.333 1551.89 480.208 1550.1 481.555 1548 481.555 1545.9 481.555 1544.11 480.208 1543.45 478.333 1543.27 477.828 1543.17 477.287 1543.17 476.721L1543.17 456.205 1543.17 451.303 1543.17 446.423C1525.01 448.799 1510.94 464.37 1510.94 483.167 1510.94 485.836 1513.11 488 1515.78 488L1580.22 488C1582.89 488 1585.06 485.836 1585.06 483.167 1585.06 464.371 1570.99 448.8 1552.83 446.423Z" stroke="#000000" stroke-width="0.179688"/></g></g></g></g></svg>