<svg width="578" height="132" xmlns="http://www.w3.org/2000/svg" xmlns:xlink="http://www.w3.org/1999/xlink" xml:space="preserve" overflow="hidden"><g transform="translate(-1476 -217)"><rect x="1479.5" y="220.5" width="571" height="125" stroke="#946BEB" stroke-width="6.875" stroke-miterlimit="8" fill="none"/><rect x="1479.5" y="220.5" width="565" height="125" stroke="#FFFFFF" stroke-width="6.875" stroke-miterlimit="8" fill="#FFFFFF"/><g><g><g><path d="M1548 238C1536.85 238 1527.78 247.071 1527.78 258.22 1527.78 269.37 1536.85 278.441 1548 278.441 1559.15 278.441 1568.22 269.37 1568.22 258.22 1568.22 247.071 1559.15 238 1548 238Z" stroke="#946BEB" stroke-width="0.179688" fill="#946BEB"/><path d="M1552.83 288.423 1552.83 293.303 1552.83 298.205 1552.83 318.721C1552.83 319.287 1552.73 319.828 1552.55 320.333 1551.89 322.208 1550.1 323.555 1548 323.555 1545.9 323.555 1544.11 322.208 1543.45 320.333 1543.27 319.828 1543.17 319.287 1543.17 318.721L1543.17 298.205 1543.17 293.303 1543.17 288.423C1525.01 290.799 1510.94 306.37 1510.94 325.166 1510.94 327.835 1513.11 330 1515.78 330L1580.22 330C1582.89 330 1585.06 327.835 1585.06 325.166 1585.06 306.371 1570.99 290.799 1552.83 288.423Z" stroke="#946BEB" stroke-width="0.179688" fill="#946BEB"/></g></g></g></g></svg>