<svg width="578" height="132" xmlns="http://www.w3.org/2000/svg" xmlns:xlink="http://www.w3.org/1999/xlink" xml:space="preserve" overflow="hidden"><g transform="translate(3 -375)"><rect x="0.499836" y="378.5" width="571" height="125" stroke="#FFFFFF" stroke-width="6.875" stroke-miterlimit="8" fill="none"/><rect x="0.499836" y="378.5" width="565" height="125" stroke="#FFFFFF" stroke-width="6.875" stroke-miterlimit="8" fill="none"/><g><g><g><path d="M68.8631 383.112C64.2547 383.112 60.5928 386.911 60.5928 391.519 60.5928 396.128 64.2549 399.79 68.8631 399.79 73.4713 399.79 77.1334 396.128 77.1334 391.519 77.1334 386.911 73.4713 383.112 68.8631 383.112ZM31.7151 398.043C27.107 398.043 23.4448 401.849 23.4448 406.458 23.4448 411.066 27.107 414.728 31.7154 414.728 36.3235 414.728 39.9856 411.066 39.9856 406.458 39.9856 401.849 36.3235 398.042 31.7156 398.042ZM101.12 403.574C96.5116 403.574 92.8495 407.38 92.8495 411.989 92.8495 416.598 96.5116 420.259 101.12 420.259 105.728 420.259 109.39 416.598 109.39 411.989 109.39 407.38 105.728 403.574 101.12 403.574ZM61.5079 417.627C60.7169 417.627 59.9185 417.73 59.1353 417.94 52.8714 419.618 49.5845 427.646 51.7879 435.869 52.6429 439.06 54.2007 441.805 56.1519 443.88 51.4583 444.987 47.8177 447.168 46.2642 449.862L46.1651 449.839 36.0103 465.571 23.6353 460.215C16.4634 456.279 8.6023 466.074 16.1587 470.392L39.2222 481.15 48.5069 468.927C53.7542 478.384 52.3516 487.844 42.3731 497.309L83.6793 497.309C73.9576 487.982 73.3184 478.65 77.9957 469.324L86.9825 481.15 110.047 470.392C112.887 468.768 113.546 466.371 112.885 464.22 110.887 465.504 108.511 466.257 105.965 466.257 102.492 466.257 99.3441 464.861 97.0311 462.61L90.1952 465.57 80.0404 449.839 80.033 449.839C78.6951 447.54 75.8275 445.62 72.0904 444.422 74.9176 440.949 75.9781 435.413 74.4708 429.789 72.543 422.593 67.0489 417.631 61.5089 417.627ZM21.4383 432.527C16.8301 432.527 13.1682 436.326 13.1682 440.935 13.1682 445.544 16.8303 449.205 21.4383 449.205 26.0467 449.205 29.7088 445.544 29.7088 440.935 29.7088 436.327 26.0467 432.528 21.4383 432.528ZM105.965 445.009C101.356 445.009 97.6942 448.815 97.6942 453.424 97.6942 458.033 101.356 461.694 105.964 461.694 110.573 461.694 114.235 458.033 114.235 453.424 114.235 448.816 110.573 445.009 105.965 445.009Z"/></g></g></g></g></svg>