<svg width="578" height="132" xmlns="http://www.w3.org/2000/svg" xmlns:xlink="http://www.w3.org/1999/xlink" xml:space="preserve" overflow="hidden"><g transform="translate(3 -217)"><rect x="0.499836" y="220.5" width="571" height="125" stroke="#946BEB" stroke-width="6.875" stroke-miterlimit="8" fill="none"/><rect x="0.499836" y="220.5" width="565" height="125" stroke="#FFFFFF" stroke-width="6.875" stroke-miterlimit="8" fill="#FFFFFF"/><g><g><g><path d="M68.8631 225.112C64.2547 225.112 60.5928 228.911 60.5928 233.519 60.5928 238.128 64.2549 241.79 68.8631 241.79 73.4713 241.79 77.1334 238.128 77.1334 233.519 77.1334 228.911 73.4713 225.112 68.8631 225.112ZM31.7151 240.042C27.107 240.042 23.4448 243.849 23.4448 248.458 23.4448 253.066 27.107 256.728 31.7154 256.728 36.3235 256.728 39.9856 253.066 39.9856 248.458 39.9856 243.849 36.3235 240.042 31.7156 240.042ZM101.12 245.574C96.5116 245.574 92.8495 249.38 92.8495 253.989 92.8495 258.598 96.5116 262.259 101.12 262.259 105.728 262.259 109.39 258.598 109.39 253.989 109.39 249.38 105.728 245.574 101.12 245.574ZM61.5079 259.627C60.7169 259.626 59.9185 259.73 59.1353 259.94 52.8714 261.618 49.5845 269.646 51.7879 277.869 52.6429 281.06 54.2007 283.805 56.1519 285.88 51.4583 286.987 47.8177 289.168 46.2642 291.862L46.1651 291.839 36.0103 307.571 23.6353 302.215C16.4634 298.279 8.6023 308.074 16.1587 312.392L39.2222 323.15 48.5069 310.927C53.7542 320.384 52.3516 329.844 42.3731 339.309L83.6793 339.309C73.9576 329.983 73.3184 320.651 77.9957 311.324L86.9825 323.15 110.047 312.392C112.887 310.769 113.546 308.371 112.885 306.22 110.887 307.504 108.511 308.257 105.965 308.257 102.492 308.257 99.3441 306.861 97.0311 304.61L90.1952 307.57 80.0404 291.839 80.033 291.839C78.6951 289.54 75.8275 287.62 72.0904 286.422 74.9176 282.95 75.9781 277.413 74.4708 271.789 72.543 264.593 67.0489 259.631 61.5089 259.627ZM21.4383 274.527C16.8301 274.527 13.1682 278.326 13.1682 282.935 13.1682 287.544 16.8303 291.205 21.4383 291.205 26.0467 291.205 29.7088 287.544 29.7088 282.935 29.7088 278.327 26.0467 274.528 21.4383 274.528ZM105.965 287.009C101.356 287.009 97.6942 290.815 97.6942 295.424 97.6942 300.033 101.356 303.694 105.964 303.694 110.573 303.694 114.235 300.033 114.235 295.424 114.235 290.816 110.573 287.009 105.965 287.009Z" fill="#946BEB"/></g></g></g></g></svg>