<svg width="578" height="132" xmlns="http://www.w3.org/2000/svg" xmlns:xlink="http://www.w3.org/1999/xlink" xml:space="preserve" overflow="hidden"><g transform="translate(3 -56)"><rect x="0.499836" y="59.5" width="571" height="125" stroke="#2F55D0" stroke-width="6.875" stroke-miterlimit="8" fill="none"/><rect x="0.499836" y="59.5" width="565" height="125" stroke="#FFFFFF" stroke-width="6.875" stroke-miterlimit="8" fill="#FFFFFF"/><g><g><g><path d="M68.8631 64.1119C64.2547 64.1119 60.5928 67.9108 60.5928 72.5194 60.5928 77.128 64.2549 80.7896 68.8631 80.7896 73.4713 80.7896 77.1334 77.128 77.1334 72.5194 77.1334 67.9112 73.4713 64.1117 68.8631 64.1117ZM31.7151 79.0426C27.107 79.0426 23.4448 82.8487 23.4448 87.4581 23.4448 92.0665 27.107 95.7281 31.7154 95.7281 36.3235 95.7281 39.9856 92.0665 39.9856 87.4578 39.9856 82.8494 36.3235 79.0423 31.7156 79.0423ZM101.12 84.5738C96.5116 84.5738 92.8495 88.38 92.8495 92.9893 92.8495 97.5977 96.5116 101.259 101.12 101.259 105.728 101.259 109.39 97.5977 109.39 92.9891 109.39 88.3804 105.728 84.5736 101.12 84.5736ZM61.5079 98.6273C60.7169 98.6265 59.9185 98.7298 59.1353 98.9398 52.8714 100.618 49.5845 108.646 51.7879 116.869 52.6429 120.06 54.2007 122.805 56.1519 124.88 51.4583 125.987 47.8177 128.168 46.2642 130.862L46.1651 130.839 36.0103 146.571 23.6353 141.215C16.4634 137.279 8.6023 147.074 16.1587 151.392L39.2222 162.15 48.5069 149.927C53.7542 159.384 52.3516 168.844 42.3731 178.309L83.6793 178.309C73.9576 168.982 73.3184 159.65 77.9957 150.324L86.9825 162.15 110.047 151.392C112.887 149.769 113.546 147.371 112.885 145.22 110.887 146.504 108.511 147.257 105.965 147.257 102.492 147.257 99.3441 145.861 97.0311 143.61L90.1952 146.57 80.0404 130.839 80.033 130.839C78.6951 128.54 75.8275 126.62 72.0904 125.422 74.9176 121.949 75.9781 116.413 74.4708 110.789 72.543 103.593 67.0489 98.6309 61.5089 98.6273ZM21.4383 113.527C16.8301 113.527 13.1682 117.326 13.1682 121.935 13.1682 126.544 16.8303 130.205 21.4383 130.205 26.0467 130.205 29.7088 126.544 29.7088 121.935 29.7088 117.327 26.0467 113.528 21.4383 113.528ZM105.965 126.009C101.356 126.009 97.6942 129.815 97.6942 134.424 97.6942 139.033 101.356 142.694 105.964 142.694 110.573 142.694 114.235 139.033 114.235 134.424 114.235 129.816 110.573 126.009 105.965 126.009Z" fill="#2F55D0"/></g></g></g></g></svg>