<svg width="578" height="132" xmlns="http://www.w3.org/2000/svg" xmlns:xlink="http://www.w3.org/1999/xlink" xml:space="preserve" overflow="hidden"><g transform="translate(3 -1134)"><rect x="0.499836" y="1137.5" width="571" height="125" stroke="#FFFFFF" stroke-width="6.875" stroke-miterlimit="8" fill="#FFFFFF"/><rect x="0.499836" y="1137.5" width="565" height="125" stroke="#FFFFFF" stroke-width="6.875" stroke-miterlimit="8" fill="none"/><g><g><g><path d="M49.5899 50.0024 35.4099 50.0024C33.3293 49.9853 31.327 50.7954 29.8436 52.2544 28.3601 53.7134 27.5171 55.7019 27.5 57.7824L27.5 87.2273C27.5385 91.5583 31.0791 95.0388 35.4099 95.0023L49.5899 95.0023C51.6704 95.0198 53.6729 94.2098 55.1564 92.7508 56.6399 91.2918 57.4829 89.3033 57.4999 87.2223L57.4999 57.7824C57.4829 55.7019 56.6399 53.7134 55.1564 52.2544 53.6729 50.7954 51.6704 49.9853 49.5899 50.0024Z" stroke="#000000" stroke-width="7.49999" stroke-linecap="round" stroke-linejoin="round" fill="none" fill-rule="evenodd" transform="matrix(1 0 0 1 0 1139.5)"/><path d="M49.5899 20.003 35.4099 20.003C31.1662 19.8853 27.6279 23.2246 27.5 27.4679L27.5 32.5379C27.6279 36.7814 31.1662 40.1207 35.4099 40.0029L49.5899 40.0029C53.8334 40.1207 57.3719 36.7814 57.4999 32.5379L57.4999 27.4679C57.3719 23.2246 53.8334 19.8853 49.5899 20.003Z" stroke="#000000" stroke-width="7.49999" stroke-linecap="round" stroke-linejoin="round" fill="none" fill-rule="evenodd" transform="matrix(1 0 0 1 0 1139.5)"/><path d="M75.4099 65.0034 89.5848 65.0034C91.6663 65.0219 93.6698 64.2124 95.1543 62.7534 96.6388 61.2939 97.4828 59.3049 97.4998 57.2234L97.4998 27.7833C97.4828 25.7027 96.6398 23.7141 95.1563 22.255 93.6728 20.796 91.6703 19.986 89.5898 20.0033L75.4099 20.0033C73.3294 19.986 71.3269 20.796 69.8434 22.255 68.3599 23.7141 67.5169 25.7027 67.4999 27.7833L67.4999 57.2234C67.5169 59.3039 68.3599 61.2924 69.8434 62.7514 71.3269 64.2104 73.3294 65.0204 75.4099 65.0034Z" stroke="#000000" stroke-width="7.49999" stroke-linecap="round" stroke-linejoin="round" fill="none" fill-rule="evenodd" transform="matrix(1 0 0 1 0 1139.5)"/><path d="M75.4099 95.0028 89.5848 95.0028C93.8303 95.1233 97.3718 91.7833 97.4998 87.5378L97.4998 82.4679C97.3718 78.2244 93.8333 74.8854 89.5898 75.0029L75.4099 75.0029C71.1664 74.8854 67.6279 78.2244 67.4999 82.4679L67.4999 87.5328C67.6249 91.7783 71.1644 95.1203 75.4099 95.0028Z" stroke="#000000" stroke-width="7.49999" stroke-linecap="round" stroke-linejoin="round" fill="none" fill-rule="evenodd" transform="matrix(1 0 0 1 0 1139.5)"/></g></g></g></g></svg>