<svg width="578" height="133" xmlns="http://www.w3.org/2000/svg" xmlns:xlink="http://www.w3.org/1999/xlink" xml:space="preserve" overflow="hidden"><g transform="translate(3 -956)"><rect x="0.499836" y="959.5" width="571" height="126" stroke="#946BEB" stroke-width="6.875" stroke-miterlimit="8" fill="none"/><rect x="0.499836" y="959.5" width="565" height="126" stroke="#FFFFFF" stroke-width="6.875" stroke-miterlimit="8" fill="#FFFFFF"/><g><g><g><path d="M49.5901 50.0026 35.41 50.0026C33.3294 49.9855 31.3271 50.7956 29.8437 52.2546 28.3602 53.7136 27.5172 55.7021 27.5 57.7826L27.5 87.2276C27.5385 91.5586 31.0792 95.0391 35.41 95.0026L49.5901 95.0026C51.6706 95.0201 53.6731 94.2101 55.1566 92.7511 56.6401 91.2921 57.4831 89.3036 57.5001 87.2226L57.5001 57.7826C57.4831 55.7021 56.6401 53.7136 55.1566 52.2546 53.6731 50.7956 51.6706 49.9855 49.5901 50.0026Z" stroke="#946BEB" stroke-width="7.50001" stroke-linecap="round" stroke-linejoin="round" fill="none" fill-rule="evenodd" transform="matrix(1 0 0 1.008 0 961.52)"/><path d="M49.5901 20.003 35.41 20.003C31.1663 19.8853 27.628 23.2246 27.5 27.468L27.5 32.538C27.628 36.7815 31.1663 40.1208 35.41 40.003L49.5901 40.003C53.8336 40.1208 57.3721 36.7815 57.5001 32.538L57.5001 27.468C57.3721 23.2246 53.8336 19.8853 49.5901 20.003Z" stroke="#946BEB" stroke-width="7.50001" stroke-linecap="round" stroke-linejoin="round" fill="none" fill-rule="evenodd" transform="matrix(1 0 0 1.008 0 961.52)"/><path d="M75.4101 65.0036 89.5851 65.0036C91.6666 65.0221 93.6701 64.2126 95.1546 62.7536 96.6391 61.2941 97.4831 59.3051 97.5001 57.2236L97.5001 27.7833C97.4831 25.7027 96.6401 23.7141 95.1566 22.2551 93.6731 20.796 91.6706 19.986 89.5901 20.0033L75.4101 20.0033C73.3296 19.986 71.3271 20.796 69.8436 22.2551 68.3601 23.7141 67.5171 25.7027 67.5001 27.7833L67.5001 57.2236C67.5171 59.3041 68.3601 61.2926 69.8436 62.7516 71.3271 64.2106 73.3296 65.0206 75.4101 65.0036Z" stroke="#946BEB" stroke-width="7.50001" stroke-linecap="round" stroke-linejoin="round" fill="none" fill-rule="evenodd" transform="matrix(1 0 0 1.008 0 961.52)"/><path d="M75.4101 95.0031 89.5851 95.0031C93.8306 95.1236 97.3721 91.7836 97.5001 87.5381L97.5001 82.4681C97.3721 78.2246 93.8336 74.8856 89.5901 75.0031L75.4101 75.0031C71.1666 74.8856 67.6281 78.2246 67.5001 82.4681L67.5001 87.5331C67.6251 91.7786 71.1646 95.1206 75.4101 95.0031Z" stroke="#946BEB" stroke-width="7.50001" stroke-linecap="round" stroke-linejoin="round" fill="none" fill-rule="evenodd" transform="matrix(1 0 0 1.008 0 961.52)"/></g></g></g></g></svg>