<svg width="578" height="132" xmlns="http://www.w3.org/2000/svg" xmlns:xlink="http://www.w3.org/1999/xlink" xml:space="preserve" overflow="hidden"><g transform="translate(-757 -1242)"><rect x="760.5" y="1245.5" width="571" height="125" stroke="#946BEB" stroke-width="6.875" stroke-miterlimit="8" fill="none"/><rect x="760.5" y="1245.5" width="565" height="125" stroke="#FFFFFF" stroke-width="6.875" stroke-miterlimit="8" fill="#FFFFFF"/><g><g><g><path d="M25.9101 32.552 26.1731 32.552C28.488 32.552 30.4205 32.552 32.0071 32.6602 33.6586 32.7729 35.2186 33.0158 36.7311 33.6423 40.2406 35.096 43.0289 37.8843 44.4826 41.3938 44.8747 42.3403 45.0768 43.4091 45.2024 44.3288 45.3357 45.3049 45.4171 46.3916 45.4694 47.5019 45.5181 48.5352 45.5438 49.6461 45.5575 50.7812L79.442 50.7812C79.4561 49.6461 79.4816 48.5352 79.5306 47.5019 79.5827 46.3916 79.6639 45.3049 79.7973 44.3288 79.9228 43.4091 80.1254 42.3403 80.517 41.3938 81.9707 37.8843 84.7592 35.096 88.2686 33.6423 89.7811 33.0158 91.341 32.7729 92.9925 32.6602 94.579 32.552 96.5118 32.552 98.8264 32.552L99.0899 32.552C101.405 32.552 103.337 32.552 104.924 32.6602 106.575 32.7729 108.135 33.0158 109.648 33.6423 113.157 35.096 115.946 37.8843 117.399 41.3938 118.026 42.9062 118.269 44.4663 118.381 46.1178 118.489 47.7043 118.489 49.6368 118.489 51.9517L118.489 73.0483C118.489 75.3629 118.489 77.2957 118.381 78.8821 118.269 80.5337 118.026 82.0936 117.399 83.6061 115.946 87.1155 113.157 89.904 109.648 91.3577 108.135 91.9842 106.575 92.2269 104.924 92.3394 103.337 92.4478 101.405 92.4478 99.0899 92.4478L98.8264 92.4478C96.5118 92.4478 94.579 92.4478 92.9925 92.3394 91.341 92.2269 89.7811 91.9842 88.2686 91.3577 84.7592 89.904 81.9707 87.1155 80.517 83.6061 80.1254 82.6592 79.9228 81.5905 79.7973 80.6712 79.6639 79.6946 79.5827 78.6082 79.5306 77.4978 79.4816 76.4644 79.4561 75.3535 79.442 74.2186L45.5575 74.2186C45.5438 75.3535 45.5181 76.4644 45.4694 77.4978 45.4171 78.6082 45.3357 79.6946 45.2024 80.6712 45.0768 81.5905 44.8747 82.6592 44.4826 83.6061 43.0289 87.1155 40.2406 89.904 36.7311 91.3577 35.2186 91.9842 33.6586 92.2269 32.0071 92.3394 30.4205 92.4478 28.4881 92.4478 26.1732 92.4478L25.9101 92.4478C23.5952 92.4478 21.6627 92.4478 20.0762 92.3394 18.4247 92.2269 16.8646 91.9842 15.3522 91.3577 11.8426 89.904 9.05436 87.1155 7.60066 83.6061 6.97421 82.0936 6.73129 80.5337 6.61858 78.8821 6.51035 77.2957 6.51035 75.3629 6.51041 73.0483L6.51041 51.9517C6.51035 49.6368 6.51035 47.7043 6.61858 46.1178 6.73129 44.4663 6.97421 42.9062 7.60066 41.3938 9.05436 37.8843 11.8426 35.096 15.3522 33.6423 16.8646 33.0158 18.4247 32.7729 20.0762 32.6602 21.6627 32.552 23.5952 32.552 25.9101 32.552ZM20.608 40.4546C19.3542 40.5401 18.7437 40.6936 18.3419 40.8601 16.7466 41.5209 15.4792 42.7883 14.8185 44.3835 14.652 44.7853 14.4985 45.3959 14.4129 46.6496 14.325 47.9385 14.3229 49.603 14.3229 52.0832L14.3229 72.9165C14.3229 75.3967 14.325 77.0613 14.4129 78.3504 14.4985 79.604 14.652 80.2144 14.8185 80.6165 15.4792 82.2113 16.7466 83.479 18.3419 84.14 18.7437 84.3061 19.3542 84.4597 20.608 84.5452 21.8969 84.6332 23.5614 84.6353 26.0416 84.6353 28.5218 84.6353 30.1864 84.6332 31.4753 84.5452 32.7291 84.4597 33.3395 84.3061 33.7413 84.14 35.3366 83.479 36.604 82.2113 37.2648 80.6165 37.2635 80.6191 37.2648 80.6165 37.2648 80.6165 37.2646 80.616 37.2892 80.5493 37.3284 80.379 37.3712 80.192 37.4172 79.94 37.4618 79.6139 37.5515 78.9566 37.6188 78.1233 37.6656 77.1301 37.7595 75.1368 37.7603 72.765 37.7603 70.3124 37.7603 68.1551 39.5093 66.4061 41.6666 66.4061L83.3332 66.4061C85.4905 66.4061 87.2394 68.1551 87.2394 70.3124 87.2394 72.765 87.2405 75.1368 87.3342 77.1301 87.3811 78.1233 87.4483 78.9566 87.5379 79.6139 87.5827 79.94 87.6285 80.192 87.6712 80.379 87.7108 80.5493 87.7373 80.6207 87.7368 80.6207 87.7368 80.6207 87.7384 80.6238 87.7368 80.6207 88.3978 82.216 89.6634 83.479 91.2582 84.14 91.6603 84.3061 92.2707 84.4597 93.5243 84.5452 94.8134 84.6332 96.478 84.6353 98.9582 84.6353 101.438 84.6353 103.103 84.6332 104.392 84.5452 105.646 84.4597 106.256 84.3061 106.658 84.14 108.253 83.479 109.521 82.2113 110.182 80.6165 110.348 80.2144 110.501 79.604 110.587 78.3504 110.675 77.0613 110.677 75.3967 110.677 72.9165L110.677 52.0832C110.677 49.603 110.675 47.9385 110.587 46.6496 110.501 45.3959 110.348 44.7853 110.182 44.3835 109.521 42.7883 108.253 41.5209 106.658 40.8601 106.256 40.6936 105.646 40.5401 104.392 40.4546 103.103 40.3666 101.438 40.3645 98.9582 40.3645 96.478 40.3645 94.8134 40.3666 93.5243 40.4546 92.2707 40.5401 91.6603 40.6936 91.2582 40.8601 89.6634 41.5209 88.3957 42.7883 87.7353 44.3835 87.7347 44.3835 87.7363 44.3805 87.7353 44.3835 87.7353 44.3836 87.7108 44.4505 87.6712 44.621 87.6285 44.8076 87.5827 45.0597 87.5379 45.3857 87.4483 46.0429 87.3811 46.8763 87.3342 47.8697 87.2405 49.8629 87.2394 52.2348 87.2394 54.6874 87.2394 56.8447 85.4905 58.5936 83.3332 58.5936L41.6666 58.5936C39.5093 58.5936 37.7603 56.8447 37.7603 54.6874 37.7603 52.2348 37.7595 49.8629 37.6656 47.8697 37.6188 46.8763 37.5515 46.0429 37.4618 45.3857 37.4172 45.0597 37.3712 44.8076 37.3284 44.621 37.2892 44.4505 37.2626 44.379 37.2629 44.3789 37.2617 44.376 37.2629 44.3789 37.2629 44.3789 36.6021 42.7837 35.3366 41.5209 33.7413 40.8601 33.3395 40.6936 32.7291 40.5401 31.4753 40.4546 30.1864 40.3666 28.5218 40.3645 26.0416 40.3645 23.5614 40.3645 21.8969 40.3666 20.608 40.4546Z" fill="#946BEB" fill-rule="evenodd" transform="matrix(1 0 0 1 760 1245)"/></g></g></g></g></svg>