<svg width="578" height="132" xmlns="http://www.w3.org/2000/svg" xmlns:xlink="http://www.w3.org/1999/xlink" xml:space="preserve" overflow="hidden"><g transform="translate(-757 -1082)"><rect x="760.5" y="1085.5" width="571" height="125" stroke="#2F55D0" stroke-width="6.875" stroke-miterlimit="8" fill="none"/><rect x="760.5" y="1085.5" width="565" height="125" stroke="#FFFFFF" stroke-width="6.875" stroke-miterlimit="8" fill="#FFFFFF"/><g><g><g><path d="M785.91 1117.55 786.173 1117.55C788.488 1117.55 790.421 1117.55 792.007 1117.66 793.659 1117.77 795.219 1118.02 796.731 1118.64 800.241 1120.1 803.029 1122.88 804.483 1126.39 804.875 1127.34 805.077 1128.41 805.203 1129.33 805.336 1130.3 805.417 1131.39 805.47 1132.5 805.518 1133.54 805.544 1134.65 805.558 1135.78L839.442 1135.78C839.456 1134.65 839.482 1133.54 839.531 1132.5 839.583 1131.39 839.664 1130.3 839.798 1129.33 839.923 1128.41 840.126 1127.34 840.517 1126.39 841.971 1122.88 844.76 1120.1 848.269 1118.64 849.781 1118.02 851.341 1117.77 852.993 1117.66 854.579 1117.55 856.512 1117.55 858.827 1117.55L859.09 1117.55C861.405 1117.55 863.338 1117.55 864.924 1117.66 866.576 1117.77 868.136 1118.02 869.648 1118.64 873.157 1120.1 875.946 1122.88 877.4 1126.39 878.026 1127.91 878.269 1129.47 878.381 1131.12 878.49 1132.7 878.49 1134.64 878.49 1136.95L878.49 1158.05C878.49 1160.36 878.49 1162.3 878.381 1163.88 878.269 1165.53 878.026 1167.09 877.4 1168.61 875.946 1172.12 873.157 1174.9 869.648 1176.36 868.136 1176.98 866.576 1177.23 864.924 1177.34 863.338 1177.45 861.405 1177.45 859.09 1177.45L858.827 1177.45C856.512 1177.45 854.579 1177.45 852.993 1177.34 851.341 1177.23 849.781 1176.98 848.269 1176.36 844.76 1174.9 841.971 1172.12 840.517 1168.61 840.126 1167.66 839.923 1166.59 839.798 1165.67 839.664 1164.69 839.583 1163.61 839.531 1162.5 839.482 1161.46 839.456 1160.35 839.442 1159.22L805.558 1159.22C805.544 1160.35 805.518 1161.46 805.47 1162.5 805.417 1163.61 805.336 1164.69 805.203 1165.67 805.077 1166.59 804.875 1167.66 804.483 1168.61 803.029 1172.12 800.241 1174.9 796.731 1176.36 795.219 1176.98 793.659 1177.23 792.007 1177.34 790.421 1177.45 788.488 1177.45 786.173 1177.45L785.91 1177.45C783.595 1177.45 781.663 1177.45 780.076 1177.34 778.425 1177.23 776.865 1176.98 775.352 1176.36 771.843 1174.9 769.054 1172.12 767.601 1168.61 766.974 1167.09 766.731 1165.53 766.619 1163.88 766.51 1162.3 766.51 1160.36 766.51 1158.05L766.51 1136.95C766.51 1134.64 766.51 1132.7 766.619 1131.12 766.731 1129.47 766.974 1127.91 767.601 1126.39 769.054 1122.88 771.843 1120.1 775.352 1118.64 776.865 1118.02 778.425 1117.77 780.076 1117.66 781.663 1117.55 783.595 1117.55 785.91 1117.55ZM780.608 1125.45C779.354 1125.54 778.744 1125.69 778.342 1125.86 776.747 1126.52 775.479 1127.79 774.819 1129.38 774.652 1129.79 774.499 1130.4 774.413 1131.65 774.325 1132.94 774.323 1134.6 774.323 1137.08L774.323 1157.92C774.323 1160.4 774.325 1162.06 774.413 1163.35 774.499 1164.6 774.652 1165.21 774.819 1165.62 775.479 1167.21 776.747 1168.48 778.342 1169.14 778.744 1169.31 779.354 1169.46 780.608 1169.55 781.897 1169.63 783.562 1169.64 786.042 1169.64 788.522 1169.64 790.187 1169.63 791.475 1169.55 792.729 1169.46 793.34 1169.31 793.742 1169.14 795.337 1168.48 796.604 1167.21 797.265 1165.62 797.264 1165.62 797.265 1165.62 797.265 1165.62 797.265 1165.62 797.289 1165.55 797.329 1165.38 797.371 1165.19 797.417 1164.94 797.462 1164.61 797.552 1163.96 797.619 1163.12 797.666 1162.13 797.76 1160.14 797.76 1157.77 797.76 1155.31 797.76 1153.16 799.509 1151.41 801.667 1151.41L843.333 1151.41C845.491 1151.41 847.24 1153.16 847.24 1155.31 847.24 1157.77 847.241 1160.14 847.335 1162.13 847.381 1163.12 847.449 1163.96 847.538 1164.61 847.583 1164.94 847.629 1165.19 847.672 1165.38 847.711 1165.55 847.738 1165.62 847.737 1165.62 847.737 1165.62 847.739 1165.62 847.737 1165.62 848.398 1167.22 849.664 1168.48 851.258 1169.14 851.661 1169.31 852.271 1169.46 853.525 1169.55 854.814 1169.63 856.478 1169.64 858.958 1169.64 861.439 1169.64 863.103 1169.63 864.392 1169.55 865.646 1169.46 866.256 1169.31 866.659 1169.14 868.253 1168.48 869.521 1167.21 870.182 1165.62 870.348 1165.21 870.502 1164.6 870.587 1163.35 870.675 1162.06 870.677 1160.4 870.677 1157.92L870.677 1137.08C870.677 1134.6 870.675 1132.94 870.587 1131.65 870.502 1130.4 870.348 1129.79 870.182 1129.38 869.521 1127.79 868.253 1126.52 866.659 1125.86 866.256 1125.69 865.646 1125.54 864.392 1125.45 863.103 1125.37 861.439 1125.36 858.958 1125.36 856.478 1125.36 854.814 1125.37 853.525 1125.45 852.271 1125.54 851.661 1125.69 851.258 1125.86 849.664 1126.52 848.396 1127.79 847.736 1129.38 847.735 1129.38 847.737 1129.38 847.736 1129.38 847.736 1129.38 847.711 1129.45 847.672 1129.62 847.629 1129.81 847.583 1130.06 847.538 1130.39 847.449 1131.04 847.381 1131.88 847.335 1132.87 847.241 1134.86 847.24 1137.23 847.24 1139.69 847.24 1141.84 845.491 1143.59 843.333 1143.59L801.667 1143.59C799.509 1143.59 797.76 1141.84 797.76 1139.69 797.76 1137.23 797.76 1134.86 797.666 1132.87 797.619 1131.88 797.552 1131.04 797.462 1130.39 797.417 1130.06 797.371 1129.81 797.329 1129.62 797.289 1129.45 797.263 1129.38 797.263 1129.38 797.262 1129.38 797.263 1129.38 797.263 1129.38 796.602 1127.78 795.337 1126.52 793.742 1125.86 793.34 1125.69 792.729 1125.54 791.475 1125.45 790.187 1125.37 788.522 1125.36 786.042 1125.36 783.562 1125.36 781.897 1125.37 780.608 1125.45Z" fill="#2F55D0" fill-rule="evenodd"/></g></g></g></g></svg>