<svg width="578" height="133" xmlns="http://www.w3.org/2000/svg" xmlns:xlink="http://www.w3.org/1999/xlink" xml:space="preserve" overflow="hidden"><g transform="translate(-757 -1400)"><rect x="760.5" y="1403.5" width="571" height="126" stroke="#FFFFFF" stroke-width="6.875" stroke-miterlimit="8" fill="none"/><rect x="760.5" y="1403.5" width="565" height="126" stroke="#FFFFFF" stroke-width="6.875" stroke-miterlimit="8" fill="none"/><g><g><g><path d="M25.9102 32.5521 26.1732 32.5521C28.4881 32.5521 30.4206 32.5521 32.0072 32.6603 33.6587 32.773 35.2187 33.0159 36.7312 33.6424 40.2407 35.0961 43.029 37.8844 44.4827 41.3939 44.8748 42.3404 45.077 43.4093 45.2025 44.329 45.3358 45.305 45.4172 46.3917 45.4695 47.5021 45.5182 48.5354 45.544 49.6463 45.5576 50.7813L79.4423 50.7813C79.4563 49.6463 79.4818 48.5354 79.5308 47.5021 79.5829 46.3917 79.6641 45.305 79.7975 44.329 79.923 43.4093 80.1256 42.3404 80.5173 41.3939 81.9709 37.8844 84.7595 35.0961 88.2688 33.6424 89.7813 33.0159 91.3412 32.773 92.9928 32.6603 94.5793 32.5521 96.5121 32.5521 98.8267 32.5521L99.0902 32.5521C101.405 32.5521 103.338 32.5521 104.924 32.6603 106.576 32.773 108.136 33.0159 109.648 33.6424 113.157 35.0961 115.946 37.8844 117.4 41.3939 118.026 42.9063 118.269 44.4664 118.381 46.118 118.49 47.7045 118.49 49.6369 118.49 51.9518L118.49 73.0485C118.49 75.3631 118.49 77.2959 118.381 78.8824 118.269 80.5339 118.026 82.0938 117.4 83.6063 115.946 87.1157 113.157 89.9043 109.648 91.3579 108.136 91.9845 106.576 92.2272 104.924 92.3397 103.338 92.448 101.405 92.448 99.0902 92.448L98.8267 92.448C96.5121 92.448 94.5793 92.448 92.9928 92.3397 91.3412 92.2272 89.7813 91.9845 88.2688 91.3579 84.7595 89.9043 81.9709 87.1157 80.5173 83.6063 80.1256 82.6595 79.923 81.5907 79.7975 80.6714 79.6641 79.6949 79.5829 78.6084 79.5308 77.498 79.4818 76.4647 79.4563 75.3537 79.4423 74.2188L45.5576 74.2188C45.544 75.3537 45.5182 76.4647 45.4695 77.498 45.4172 78.6084 45.3358 79.6949 45.2025 80.6714 45.077 81.5907 44.8748 82.6595 44.4827 83.6063 43.029 87.1157 40.2407 89.9043 36.7312 91.3579 35.2187 91.9845 33.6587 92.2272 32.0072 92.3397 30.4206 92.448 28.4882 92.448 26.1733 92.448L25.9101 92.448C23.5952 92.448 21.6628 92.448 20.0763 92.3397 18.4247 92.2272 16.8647 91.9845 15.3522 91.3579 11.8427 89.9043 9.05438 87.1157 7.60068 83.6063 6.97423 82.0938 6.73131 80.5339 6.6186 78.8824 6.51037 77.2959 6.51037 75.3631 6.51042 73.0485L6.51042 51.9519C6.51037 49.637 6.51037 47.7045 6.6186 46.118 6.73131 44.4664 6.97423 42.9063 7.60068 41.3939 9.05438 37.8844 11.8427 35.0961 15.3522 33.6424 16.8647 33.0159 18.4247 32.773 20.0763 32.6603 21.6628 32.5521 23.5953 32.5521 25.9102 32.5521ZM20.608 40.4547C19.3543 40.5402 18.7438 40.6937 18.3419 40.8602 16.7467 41.521 15.4793 42.7884 14.8185 44.3836 14.652 44.7855 14.4986 45.396 14.413 46.6497 14.3251 47.9386 14.3229 49.6032 14.3229 52.0834L14.3229 72.9167C14.3229 75.397 14.3251 77.0615 14.413 78.3506 14.4986 79.6042 14.652 80.2147 14.8185 80.6168 15.4793 82.2115 16.7467 83.4793 18.3419 84.1402 18.7438 84.3063 19.3543 84.46 20.608 84.5454 21.8969 84.6334 23.5615 84.6355 26.0417 84.6355 28.5219 84.6355 30.1864 84.6334 31.4753 84.5454 32.7291 84.46 33.3396 84.3063 33.7414 84.1402 35.3367 83.4793 36.6041 82.2115 37.2649 80.6168 37.2636 80.6194 37.2649 80.6168 37.2649 80.6168 37.2647 80.6162 37.2893 80.5496 37.3285 80.3792 37.3713 80.1923 37.4173 79.9402 37.4619 79.6141 37.5516 78.9569 37.6189 78.1235 37.6657 77.1303 37.7596 75.1371 37.7605 72.7652 37.7605 70.3126 37.7605 68.1553 39.5094 66.4063 41.6667 66.4063L83.3334 66.4063C85.4907 66.4063 87.2397 68.1553 87.2397 70.3126 87.2397 72.7652 87.2407 75.1371 87.3345 77.1303 87.3813 78.1235 87.4485 78.9569 87.5381 79.6141 87.5829 79.9402 87.6287 80.1923 87.6714 80.3792 87.711 80.5496 87.7376 80.6209 87.7371 80.6209 87.7371 80.6209 87.7386 80.624 87.7371 80.6209 88.398 82.2162 89.6636 83.4793 91.2584 84.1402 91.6605 84.3063 92.2709 84.46 93.5246 84.5454 94.8136 84.6334 96.4782 84.6355 98.9584 84.6355 101.439 84.6355 103.103 84.6334 104.392 84.5454 105.646 84.46 106.256 84.3063 106.658 84.1402 108.253 83.4793 109.521 82.2115 110.182 80.6168 110.348 80.2147 110.502 79.6042 110.587 78.3506 110.675 77.0615 110.677 75.397 110.677 72.9167L110.677 52.0834C110.677 49.6032 110.675 47.9386 110.587 46.6497 110.502 45.396 110.348 44.7855 110.182 44.3836 109.521 42.7884 108.253 41.521 106.658 40.8602 106.256 40.6937 105.646 40.5402 104.392 40.4547 103.103 40.3668 101.439 40.3646 98.9584 40.3646 96.4782 40.3646 94.8136 40.3668 93.5246 40.4547 92.2709 40.5402 91.6605 40.6937 91.2584 40.8602 89.6636 41.521 88.3959 42.7884 87.7355 44.3836 87.735 44.3836 87.7365 44.3806 87.7355 44.3836 87.7355 44.3837 87.711 44.4506 87.6714 44.6211 87.6287 44.8077 87.5829 45.0598 87.5381 45.3858 87.4485 46.0431 87.3813 46.8764 87.3345 47.8698 87.2407 49.8631 87.2397 52.235 87.2397 54.6876 87.2397 56.8448 85.4907 58.5938 83.3334 58.5938L41.6667 58.5938C39.5094 58.5938 37.7605 56.8448 37.7605 54.6876 37.7605 52.235 37.7596 49.8631 37.6657 47.8698 37.6189 46.8764 37.5516 46.0431 37.4619 45.3858 37.4173 45.0598 37.3713 44.8077 37.3285 44.6211 37.2893 44.4506 37.2627 44.3792 37.263 44.3791 37.2618 44.3761 37.263 44.3791 37.263 44.3791 36.6022 42.7838 35.3367 41.521 33.7414 40.8602 33.3396 40.6937 32.7291 40.5402 31.4753 40.4547 30.1864 40.3668 28.5219 40.3646 26.0417 40.3646 23.5615 40.3646 21.8969 40.3668 20.608 40.4547Z" fill-rule="evenodd" transform="matrix(1 0 0 1.008 760 1403)"/></g></g></g></g></svg>