<svg width="578" height="133" xmlns="http://www.w3.org/2000/svg" xmlns:xlink="http://www.w3.org/1999/xlink" xml:space="preserve" overflow="hidden"><g transform="translate(-757 -563)"><rect x="760.5" y="566.5" width="571" height="126" stroke="#2F55D0" stroke-width="6.875" stroke-miterlimit="8" fill="none"/><rect x="760.5" y="566.5" width="565" height="126" stroke="#FFFFFF" stroke-width="6.875" stroke-miterlimit="8" fill="#FFFFFF"/><g><g><g><path d="M92.5001 59.5001C92.5001 66.8869 86.5119 72.8751 79.1251 72.8751 71.7383 72.8751 65.7501 66.8869 65.7501 59.5001 65.7501 52.1132 71.7383 46.125 79.1251 46.125 86.5119 46.125 92.5001 52.1132 92.5001 59.5001Z" fill="#2F55D0" transform="matrix(1 0 0 1.008 760 566)"/><path d="M79.5001 75.3751 78.5001 75.3751C68.4421 75.4572 59.9236 82.8117 58.3751 92.7501 58.3751 93.6251 58.6251 95.7501 61.7501 95.7501L95.7501 95.7501C98.8751 95.7501 99.1251 93.8751 99.1251 92.7501 98.0041 82.7842 89.5284 75.2802 79.5001 75.3751Z" fill="#2F55D0" transform="matrix(1 0 0 1.008 760 566)"/><path d="M60.7501 72.8751C61.2501 72.3751 60.8751 72.0001 60.8751 72.0001L60.8751 72.0001C58.3693 68.3114 57.0202 63.9593 57.0001 59.5001 56.9435 54.9328 58.3447 50.4665 61.0001 46.75 61.0001 46.681 61.056 46.625 61.1251 46.625 61.4437 46.2372 61.6201 45.752 61.6251 45.25L61.6251 31.75C61.5343 30.4087 60.4664 29.3408 59.1251 29.25L28.125 29.25C26.7461 29.3635 25.6711 30.4923 25.625 31.875L25.625 89.6251 50.0001 89.6251C51.5841 82.9859 55.374 77.0806 60.7501 72.8751ZM39.5 82.5001C39.4485 83.928 38.3029 85.0736 36.875 85.1251L34.25 85.1251C32.8222 85.0736 31.6765 83.928 31.625 82.5001L31.625 79.8751C31.6765 78.4472 32.8222 77.3016 34.25 77.2501L36.875 77.2501C38.3029 77.3016 39.4485 78.4472 39.5 79.8751ZM39.5 69.3751C39.4485 70.8029 38.3029 71.9486 36.875 72.0001L34.25 72.0001C32.8222 71.9486 31.6765 70.8029 31.625 69.3751L31.625 66.7501C31.6765 65.3222 32.8222 64.1766 34.25 64.1251L36.875 64.1251C38.3029 64.1766 39.4485 65.3222 39.5 66.7501ZM39.5 56.2501C39.4485 57.6779 38.3029 58.8236 36.875 58.8751L34.25 58.8751C32.8222 58.8236 31.6765 57.6779 31.625 56.2501L31.625 53.6251C31.6765 52.1972 32.8222 51.0516 34.25 51.0001L36.875 51.0001C38.3029 51.0516 39.4485 52.1972 39.5 53.6251ZM39.5 43.125C39.4485 44.5529 38.3029 45.6985 36.875 45.75L34.25 45.75C32.8222 45.6985 31.6765 44.5529 31.625 43.125L31.625 40.5C31.6765 39.0722 32.8222 37.9265 34.25 37.875L36.875 37.875C38.3029 37.9265 39.4485 39.0722 39.5 40.5ZM54.3751 69.3751C54.3236 70.8029 53.1779 71.9486 51.7501 72.0001L49.125 72.0001C47.6972 71.9486 46.5516 70.8029 46.5 69.3751L46.5 66.7501C46.5516 65.3222 47.6972 64.1766 49.125 64.1251L51.7501 64.1251C53.1779 64.1766 54.3236 65.3222 54.3751 66.7501ZM54.3751 56.2501C54.3236 57.6779 53.1779 58.8236 51.7501 58.8751L49.125 58.8751C47.6972 58.8236 46.5516 57.6779 46.5 56.2501L46.5 53.6251C46.5516 52.1972 47.6972 51.0516 49.125 51.0001L51.7501 51.0001C53.1779 51.0516 54.3236 52.1972 54.3751 53.6251ZM54.3751 43.125C54.3236 44.5529 53.1779 45.6985 51.7501 45.75L49.125 45.75C47.6972 45.6985 46.5516 44.5529 46.5 43.125L46.5 40.5C46.5516 39.0722 47.6972 37.9265 49.125 37.875L51.7501 37.875C53.1779 37.9265 54.3236 39.0722 54.3751 40.5Z" fill="#2F55D0" transform="matrix(1 0 0 1.008 760 566)"/></g></g></g></g></svg>