<svg width="578" height="132" xmlns="http://www.w3.org/2000/svg" xmlns:xlink="http://www.w3.org/1999/xlink" xml:space="preserve" overflow="hidden"><g transform="translate(-757 -882)"><rect x="760.5" y="885.5" width="571" height="125" stroke="#FFFFFF" stroke-width="6.875" stroke-miterlimit="8" fill="none"/><rect x="760.5" y="885.5" width="565" height="125" stroke="#FFFFFF" stroke-width="6.875" stroke-miterlimit="8" fill="none"/><g><g><g><path d="M92.4998 59.4999C92.4998 66.8867 86.5117 72.8749 79.1249 72.8749 71.7381 72.8749 65.7499 66.8867 65.7499 59.4999 65.7499 52.1131 71.7381 46.1249 79.1249 46.1249 86.5117 46.1249 92.4998 52.1131 92.4998 59.4999Z" transform="matrix(1 0 0 1 760 885)"/><path d="M79.4999 75.3749 78.4999 75.3749C68.4419 75.457 59.9234 82.8115 58.3749 92.7498 58.3749 93.6248 58.6249 95.7498 61.7499 95.7498L95.7498 95.7498C98.8748 95.7498 99.1248 93.8748 99.1248 92.7498 98.0039 82.784 89.5281 75.28 79.4999 75.3749Z" transform="matrix(1 0 0 1 760 885)"/><path d="M60.7499 72.8749C61.2499 72.3749 60.8749 71.9999 60.8749 71.9999L60.8749 71.9999C58.3691 68.3112 57.02 63.9591 56.9999 59.4999 56.9434 54.9327 58.3446 50.4664 60.9999 46.7499 60.9999 46.6809 61.0559 46.6249 61.1249 46.6249 61.4435 46.237 61.62 45.7519 61.6249 45.2499L61.6249 31.7499C61.5342 30.4086 60.4662 29.3407 59.1249 29.2499L28.1249 29.2499C26.7461 29.3634 25.6711 30.4922 25.625 31.8749L25.625 89.6248 49.9999 89.6248C51.584 82.9856 55.3739 77.0804 60.7499 72.8749ZM39.4999 82.4998C39.4484 83.9277 38.3028 85.0733 36.8749 85.1248L34.2499 85.1248C32.8221 85.0733 31.6764 83.9277 31.6249 82.4998L31.6249 79.8749C31.6764 78.447 32.8221 77.3014 34.2499 77.2499L36.8749 77.2499C38.3028 77.3014 39.4484 78.447 39.4999 79.8749ZM39.4999 69.3749C39.4484 70.8027 38.3028 71.9484 36.8749 71.9999L34.2499 71.9999C32.8221 71.9484 31.6764 70.8027 31.6249 69.3749L31.6249 66.7499C31.6764 65.322 32.8221 64.1764 34.2499 64.1249L36.8749 64.1249C38.3028 64.1764 39.4484 65.322 39.4999 66.7499ZM39.4999 56.2499C39.4484 57.6778 38.3028 58.8234 36.8749 58.8749L34.2499 58.8749C32.8221 58.8234 31.6764 57.6778 31.6249 56.2499L31.6249 53.6249C31.6764 52.197 32.8221 51.0514 34.2499 50.9999L36.8749 50.9999C38.3028 51.0514 39.4484 52.197 39.4999 53.6249ZM39.4999 43.1249C39.4484 44.5528 38.3028 45.6984 36.8749 45.7499L34.2499 45.7499C32.8221 45.6984 31.6764 44.5528 31.6249 43.1249L31.6249 40.4999C31.6764 39.0721 32.8221 37.9264 34.2499 37.8749L36.8749 37.8749C38.3028 37.9264 39.4484 39.0721 39.4999 40.4999ZM54.3749 69.3749C54.3234 70.8027 53.1778 71.9484 51.7499 71.9999L49.1249 71.9999C47.697 71.9484 46.5514 70.8027 46.4999 69.3749L46.4999 66.7499C46.5514 65.322 47.697 64.1764 49.1249 64.1249L51.7499 64.1249C53.1778 64.1764 54.3234 65.322 54.3749 66.7499ZM54.3749 56.2499C54.3234 57.6778 53.1778 58.8234 51.7499 58.8749L49.1249 58.8749C47.697 58.8234 46.5514 57.6778 46.4999 56.2499L46.4999 53.6249C46.5514 52.197 47.697 51.0514 49.1249 50.9999L51.7499 50.9999C53.1778 51.0514 54.3234 52.197 54.3749 53.6249ZM54.3749 43.1249C54.3234 44.5528 53.1778 45.6984 51.7499 45.7499L49.1249 45.7499C47.697 45.6984 46.5514 44.5528 46.4999 43.1249L46.4999 40.4999C46.5514 39.0721 47.697 37.9264 49.1249 37.8749L51.7499 37.8749C53.1778 37.9264 54.3234 39.0721 54.3749 40.4999Z" transform="matrix(1 0 0 1 760 885)"/></g></g></g></g></svg>