<svg width="578" height="132" xmlns="http://www.w3.org/2000/svg" xmlns:xlink="http://www.w3.org/1999/xlink" xml:space="preserve" overflow="hidden"><g transform="translate(-757 -724)"><rect x="760.5" y="727.5" width="571" height="125" stroke="#946BEB" stroke-width="6.875" stroke-miterlimit="8" fill="none"/><rect x="760.5" y="727.5" width="565" height="125" stroke="#FFFFFF" stroke-width="6.875" stroke-miterlimit="8" fill="#FFFFFF"/><g><g><g><path d="M852.5 786.5C852.5 793.887 846.512 799.875 839.125 799.875 831.738 799.875 825.75 793.887 825.75 786.5 825.75 779.113 831.738 773.125 839.125 773.125 846.512 773.125 852.5 779.113 852.5 786.5Z" fill="#946BEB"/><path d="M839.5 802.375 838.5 802.375C828.442 802.457 819.924 809.812 818.375 819.75 818.375 820.625 818.625 822.75 821.75 822.75L855.75 822.75C858.875 822.75 859.125 820.875 859.125 819.75 858.004 809.784 849.528 802.28 839.5 802.375Z" fill="#946BEB"/><path d="M820.75 799.875C821.25 799.375 820.875 799 820.875 799L820.875 799C818.369 795.311 817.02 790.959 817 786.5 816.944 781.933 818.345 777.467 821 773.75 821 773.681 821.056 773.625 821.125 773.625 821.444 773.237 821.62 772.752 821.625 772.25L821.625 758.75C821.534 757.409 820.466 756.341 819.125 756.25L788.125 756.25C786.746 756.364 785.671 757.492 785.625 758.875L785.625 816.625 810 816.625C811.584 809.986 815.374 804.081 820.75 799.875ZM799.5 809.5C799.449 810.928 798.303 812.074 796.875 812.125L794.25 812.125C792.822 812.074 791.677 810.928 791.625 809.5L791.625 806.875C791.677 805.447 792.822 804.302 794.25 804.25L796.875 804.25C798.303 804.302 799.449 805.447 799.5 806.875ZM799.5 796.375C799.449 797.803 798.303 798.949 796.875 799L794.25 799C792.822 798.949 791.677 797.803 791.625 796.375L791.625 793.75C791.677 792.322 792.822 791.177 794.25 791.125L796.875 791.125C798.303 791.177 799.449 792.322 799.5 793.75ZM799.5 783.25C799.449 784.678 798.303 785.824 796.875 785.875L794.25 785.875C792.822 785.824 791.677 784.678 791.625 783.25L791.625 780.625C791.677 779.197 792.822 778.052 794.25 778L796.875 778C798.303 778.052 799.449 779.197 799.5 780.625ZM799.5 770.125C799.449 771.553 798.303 772.699 796.875 772.75L794.25 772.75C792.822 772.699 791.677 771.553 791.625 770.125L791.625 767.5C791.677 766.072 792.822 764.927 794.25 764.875L796.875 764.875C798.303 764.927 799.449 766.072 799.5 767.5ZM814.375 796.375C814.324 797.803 813.178 798.949 811.75 799L809.125 799C807.697 798.949 806.552 797.803 806.5 796.375L806.5 793.75C806.552 792.322 807.697 791.177 809.125 791.125L811.75 791.125C813.178 791.177 814.324 792.322 814.375 793.75ZM814.375 783.25C814.324 784.678 813.178 785.824 811.75 785.875L809.125 785.875C807.697 785.824 806.552 784.678 806.5 783.25L806.5 780.625C806.552 779.197 807.697 778.052 809.125 778L811.75 778C813.178 778.052 814.324 779.197 814.375 780.625ZM814.375 770.125C814.324 771.553 813.178 772.699 811.75 772.75L809.125 772.75C807.697 772.699 806.552 771.553 806.5 770.125L806.5 767.5C806.552 766.072 807.697 764.927 809.125 764.875L811.75 764.875C813.178 764.927 814.324 766.072 814.375 767.5Z" fill="#946BEB"/></g></g></g></g></svg>